PathFileType	4	(X/Y/Z)	C:\Users\Biomechanik\SynologyDrive\AlexP\Athlete_03\Athlete_3_25_03_31\Walking_08\marker_experimental.trc
DataRate	CameraRate	NumFrames	NumMarkers	Units	OrigDataRate	OrigDataStartFrame	OrigNumFrames
200.000000	200.000000	4	53	mm	200.000000	138	222
Frame#	Time	GLAB			RFHD			LFHD			C7			T6			SPINMOL			SPINM2			SPINM3			T12			BELTOL			BELT2			BELT3			SACROL			SACR2			SACR3			LTHOL			LTH2			LTH3			LSHAOL			LSHA2			LSHA3			LHEE			LTOE			LM5			RTHOL			RTH2			RTH3			RSHAOL			RSHA2			RSHA3			RHEE			RTOE			RM5			STRN			XIPH			LACR			LUAOL			LUA2			LUA3			LLAOL			LLA2			LLA3			LWRR			LWRU			RACR			RUAOL			RUA2			RUA3			RLAOL			RLA2			RLA3			RWRR			RWRU			
		X1	Y1	Z1	X2	Y2	Z2	X3	Y3	Z3	X4	Y4	Z4	X5	Y5	Z5	X6	Y6	Z6	X7	Y7	Z7	X8	Y8	Z8	X9	Y9	Z9	X10	Y10	Z10	X11	Y11	Z11	X12	Y12	Z12	X13	Y13	Z13	X14	Y14	Z14	X15	Y15	Z15	X16	Y16	Z16	X17	Y17	Z17	X18	Y18	Z18	X19	Y19	Z19	X20	Y20	Z20	X21	Y21	Z21	X22	Y22	Z22	X23	Y23	Z23	X24	Y24	Z24	X25	Y25	Z25	X26	Y26	Z26	X27	Y27	Z27	X28	Y28	Z28	X29	Y29	Z29	X30	Y30	Z30	X31	Y31	Z31	X32	Y32	Z32	X33	Y33	Z33	X34	Y34	Z34	X35	Y35	Z35	X36	Y36	Z36	X37	Y37	Z37	X38	Y38	Z38	X39	Y39	Z39	X40	Y40	Z40	X41	Y41	Z41	X42	Y42	Z42	X43	Y43	Z43	X44	Y44	Z44	X45	Y45	Z45	X46	Y46	Z46	X47	Y47	Z47	X48	Y48	Z48	X49	Y49	Z49	X50	Y50	Z50	X51	Y51	Z51	X52	Y52	Z52	X53	Y53	Z53	

139	0.6900000000000001	496.9149475097655	1586.247436523438	157.5485076904298	444.039337158203	1610.546020507812	220.4849090576173	455.3593749999999	1606.1962890625	82.38333892822274	279.0378112792968	1421.097534179688	143.7140808105469	218.327178955078	1255.9130859375	150.1766967773438	209.9104461669921	1215.37353515625	131.4644012451172	203.6912536621093	1210.838256835938	181.2561950683594	211.0271759033202	1152.089599609375	150.7625885009766	230.0608978271484	1085.449340820312	156.1461029052735	196.8857269287109	1051.957641601562	144.050033569336	196.3494415283202	1050.76904296875	194.6084747314453	189.1860809326171	990.4881591796875	166.3062133789063	204.3618621826171	935.587646484375	139.4470977783203	202.8300170898437	932.83935546875	191.4246063232422	191.602569580078	874.0093383789062	161.6253814697266	386.2798767089843	655.4541625976562	-14.91253948211663	357.4550170898437	585.2911987304688	6.8037071228028	404.7902526855468	598.5279541015625	-1.301881551742479	462.6339721679688	315.3209228515625	1.373290538787927	421.3776245117188	247.7149200439453	11.0183639526368	471.0537109375	254.3150177001953	11.03188896179208	416.2554321289062	63.00802993774417	104.0381164550782	637.16259765625	50.03816986083988	110.6955871582032	593.3287353515625	30.45019531250004	10.53282546997081	267.8670959472655	665.7298583984375	362.5062561035157	319.0203247070311	610.25244140625	386.7579650878907	276.3602905273436	605.2106323242188	361.1578369140626	162.6373748779296	404.1678771972656	378.5171813964844	131.7486419677734	331.5411682128906	373.7828063964844	112.3223571777343	374.3358154296875	357.31884765625	-42.15817260742193	284.3419494628906	243.5301361083984	-15.82504367828374	76.43246459960938	250.2908020019531	-54.69360351562507	117.1809310913086	348.3012084960938	450.3143920898437	1319.0166015625	150.454330444336	463.7847290039061	1174.453369140625	158.5835266113282	361.6056213378906	1374.648193359375	-28.51689338684075	338.1638183593749	1216.41064453125	-122.699119567871	316.2486267089843	1156.30615234375	-139.0887298583984	362.8663940429687	1155.337890625	-118.0398406982421	317.7823181152344	953.7701416015625	-161.5911560058593	269.5062866210937	893.5568237304688	-143.247085571289	315.5932312011719	892.0424194335938	-162.0551605224609	321.8362731933594	788.6293334960938	-167.2360076904296	365.4942016601562	781.8975219726562	-100.941421508789	364.1007690429686	1382.3525390625	316.3446044921876	351.1656188964843	1240.870361328125	422.7547912597657	376.6405639648436	1180.779296875	434.5124206542969	327.1541137695311	1184.26318359375	448.0467224121094	399.5345764160155	968.9862670898438	486.6175537109376	471.0730895996092	941.4533081054688	509.5917053222657	433.503204345703	916.5850219726562	487.3952331542969	500.8777770996092	855.88916015625	496.0203247070314	543.6254882812499	863.5234985351562	426.1313781738282	
140	0.6950000000000001	504.0112915039061	1587.420776367188	156.4608154296876	451.116973876953	1611.8408203125	219.3450164794923	462.5424804687499	1607.380249023438	81.24781036376962	285.9754333496093	1422.393676757812	142.6272125244141	225.3475494384764	1257.1171875	149.0310363769532	216.9718170166014	1216.56396484375	130.2985992431641	210.712677001953	1212.015014648438	180.0828552246094	218.1546783447265	1153.279296875	149.5873107910157	237.3146972656249	1086.652465820312	154.9720611572266	203.8559570312499	1052.853881835938	142.8548889160157	203.2833404541015	1051.6435546875	193.4098663330078	196.2399597167968	991.37158203125	165.0819549560547	211.4899444580077	936.8718872070312	138.3464660644532	210.0973815917968	933.9662475585938	190.3046264648438	198.7467193603515	875.2429809570312	160.3747253417969	391.3622436523437	656.2960205078125	-15.67373275756829	361.7019653320312	586.449951171875	6.06271934509284	409.1420593261718	599.2142944335938	-1.951488733291551	464.1913452148438	315.4401855468751	1.316245436668481	422.4456176757812	248.1693115234375	11.1964588165284	472.1869812011719	254.3772735595703	10.87034893035897	416.3752136230469	63.17146301269534	104.1911621093751	637.2503051757812	49.72024917602543	110.8613433837892	593.295166015625	30.52641105651859	10.46153450012218	278.6876831054686	665.669677734375	362.0729675292969	330.7357788085936	611.0714111328125	386.5564270019532	288.1898498535155	605.2544555664062	360.9542846679688	177.0744171142577	405.987548828125	378.3862915039063	145.5251922607421	333.6287841796875	373.5671997070312	126.5919189453124	376.5859680175781	356.9498901367188	-28.53446388244635	288.4356079101562	242.1080322265625	-3.874509096145681	79.61277008056641	250.2596282958984	-43.20310974121101	121.6380081176758	347.3852233886719	457.2449035644531	1320.372680664062	149.6927185058595	470.8134765624999	1175.814575195312	157.846664428711	368.8970947265624	1375.992431640625	-29.41320228576653	346.5560607910156	1217.785400390625	-123.776741027832	325.0166015624999	1157.610107421875	-140.3264007568359	371.5208129882812	1156.832641601562	-118.9993362426757	328.1513061523438	954.8768920898438	-162.844741821289	280.3684997558593	894.1864013671875	-144.7901306152343	326.6268615722656	893.1190795898438	-163.1744842529296	334.0027465820312	789.776123046875	-168.0789642333984	377.2438659667968	783.6713256835938	-101.3411788940429	370.7218627929686	1383.782836914062	315.4366455078126	357.5506591796874	1242.266723632812	421.7694702148438	382.9140624999999	1182.113037109375	433.4694213867188	333.4764709472655	1185.708374023438	447.1674194335938	403.7872619628905	969.8009033203125	485.6984252929688	474.7792968749998	941.2596435546875	509.1772460937501	437.0103759765623	916.8971557617188	486.7486572265626	503.4705810546873	855.3109130859375	496.0098266601564	546.4078369140624	861.8320922851562	426.0847473144532	
141	0.7000000000000001	511.067169189453	1588.613403320312	155.4153442382813	458.1529846191405	1613.149291992188	218.248260498047	469.6791076660155	1608.57568359375	80.1551055908204	292.8849792480468	1423.701538085938	141.5910186767579	232.3275451660155	1258.3359375	147.9096984863282	223.9871520996093	1217.7705078125	129.152572631836	217.6873474121093	1213.204711914062	178.9300231933594	225.2357788085937	1154.483642578125	148.4266662597657	244.5229034423827	1087.870727539062	153.8160705566407	210.8287811279296	1053.78857421875	141.617904663086	210.2039184570312	1052.557861328125	192.169174194336	203.2739257812499	992.2954711914062	163.8170166015625	218.5746307373046	938.183349609375	137.2775268554688	217.3309020996093	935.1334228515625	189.2139739990235	205.8393096923827	876.5137939453125	159.1728210449219	396.3236389160156	657.1436767578125	-16.41610145568841	365.8218078613281	587.6173706054688	5.307319164276191	413.3674926757812	599.917236328125	-2.607466697692795	465.6149291992188	315.5518798828126	1.246154427528467	423.4108276367188	248.6109771728516	11.39583015441902	473.2104187011719	254.4398498535157	10.69193840026864	416.4870300292969	63.33401489257815	104.3439865112305	637.3298950195312	49.45281982421879	110.9883041381837	593.2604370117188	30.58865165710453	10.38335132598888	289.4280700683593	665.754150390625	361.5946044921876	342.3353881835936	612.0597534179688	386.3523254394532	299.9486999511718	605.46337890625	360.7023315429688	191.4810028076171	407.8831176757812	378.1407470703126	159.347427368164	335.7652587890625	373.2534484863282	140.8631744384765	378.8534851074219	356.4835510253906	-14.99374103546149	292.1626892089844	240.6416015625	8.935949325561472	82.70191192626953	250.1376190185547	-30.85234832763679	125.7633743286133	346.4556884765625	464.1374816894531	1321.719970703125	148.979217529297	477.7987976074218	1177.1689453125	157.1437377929688	376.1481933593749	1377.3369140625	-30.26362800598138	354.8894348144531	1219.17529296875	-124.8140106201171	333.7308349609374	1158.934448242188	-141.5400085449218	380.1261596679687	1158.347045898438	-119.9461059570312	338.5354919433594	956.0067749023438	-164.0960998535156	291.2724304199218	894.8280639648438	-146.3356781005859	337.6973876953125	894.2277221679688	-164.2850341796874	346.2382202148438	790.9649047851562	-168.8990936279296	389.0726928710937	785.5073852539062	-101.7370452880859	377.297882080078	1385.1875	314.5821228027344	363.878448486328	1243.638916015625	420.8358459472657	389.1440429687499	1183.43310546875	432.4837646484376	339.7550048828124	1187.13037109375	446.3420410156251	408.0412292480467	970.6429443359375	484.8481445312501	478.4842834472655	941.1156005859375	508.7962341308595	440.5148010253905	917.2544555664062	486.1584167480469	506.055206298828	854.797607421875	496.0326232910157	549.1047973632811	860.1939086914062	426.0475158691407	
142	0.705	518.0841064453124	1589.8232421875	154.412338256836	465.1488952636717	1614.468505859375	217.1949005126954	476.7708435058593	1609.7802734375	79.10543060302743	299.7667541503905	1425.017333984375	140.6037597656251	239.2691955566405	1259.566162109375	146.8150329589844	230.9585113525389	1218.990356445312	128.0296478271485	224.6175537109374	1214.405029296875	177.8014526367188	232.2724456787109	1155.69970703125	147.2844696044922	251.6862640380859	1089.1025390625	152.6793365478516	217.8092193603515	1054.775146484375	140.3467102050782	217.1172332763671	1053.524780273438	190.8939819335938	210.289337158203	993.273681640625	162.5184173583985	225.6173553466796	939.51806640625	136.2493743896485	224.5318908691405	936.33935546875	188.1627960205078	212.8860626220702	877.8179931640625	158.0320281982422	401.1769409179687	657.9917602539062	-17.13979721069328	369.8280944824218	588.793212890625	4.549686431884833	417.4804687499999	600.6326904296875	-3.268041610717697	466.9363708496094	315.6557006835938	1.160835385322657	424.3020629882812	249.0364227294922	11.59406661987313	474.1534118652344	254.5011749267578	10.49965953826913	416.5927429199219	63.499626159668	104.4960556030274	637.4033203125	49.22944641113285	111.0798187255861	593.2251586914062	30.63516044616703	10.29927158355724	300.0849304199218	665.9689331054688	361.0702819824219	353.8158569335936	613.2039794921875	386.1445007324219	311.6324462890624	605.8240356445312	360.4021911621094	205.8391876220702	409.8477478027344	377.7680053710938	173.1942596435546	337.9428100585938	372.8356933593751	155.1171874999999	381.1301574707031	355.9078369140626	-1.543399930000367	295.5079650878906	239.14892578125	22.58415222167964	85.66585540771484	249.9089202880859	-17.6704349517823	129.5116882324219	345.5110778808594	470.9950561523437	1323.057373046875	148.3106384277345	484.7432250976561	1178.51513671875	156.471420288086	383.3580017089843	1378.679443359375	-31.06985664367669	363.1617736816406	1220.575927734375	-125.8115005493163	342.3896789550781	1160.2744140625	-142.7280578613281	388.6804504394531	1159.876708984375	-120.8785705566406	348.9328002929688	957.1593627929688	-165.3406829833984	302.2143249511718	895.4837646484375	-147.879653930664	348.8001098632812	895.3688354492188	-165.3834533691406	358.5338134765625	792.1972045898438	-169.6945495605468	400.9712524414062	787.4054565429688	-102.1291732788085	383.8330078124999	1386.565063476562	313.7780151367188	370.1502990722655	1244.98388671875	419.9526062011719	395.3273925781249	1184.73388671875	431.5533142089844	345.9862365722655	1188.527465820312	445.5646667480469	412.2959594726561	971.5122680664062	484.0663146972657	482.189971923828	941.0225830078125	508.4468994140626	444.0172119140623	917.65576171875	485.6267395019532	508.6350097656248	854.3492431640625	496.0877380371095	551.7204589843749	858.61328125	426.0216674804689	
